Coordinates
version=1
nRows=29
nColumns=24
inDegrees=yes

Units are S.I. units (second, meters, Newtons, ...)
Angles are in degrees.

endheader
time	pelvis_tilt	pelvis_list	pelvis_rotation	pelvis_tx	pelvis_ty	pelvis_tz	hip_flexion_r	hip_adduction_r	hip_rotation_r	knee_angle_r	ankle_angle_r	subtalar_angle_r	mtp_angle_r	hip_flexion_l	hip_adduction_l	hip_rotation_l	knee_angle_l	ankle_angle_l	subtalar_angle_l	mtp_angle_l	lumbar_extension	lumbar_bending	lumbar_rotation
      5.05000000	     -8.25199067	     10.65414702	     -8.24247762	     -1.54915098	     -0.02339638	      0.43393799	     17.51073693	    -11.09953695	      4.54338826	    -63.31855563	    -31.14005495	    -25.91674268	      1.31398099	     21.05642031	     11.56337666	      1.75199988	    -17.24619465	     -4.46360518	     -3.45688746	      4.10856280	     10.14806563	     -9.27056380	      8.66176164
      5.05500000	     -8.20138177	     10.52754131	     -8.19433024	     -1.54376204	     -0.02267241	      0.43319354	     18.31345182	    -10.84729700	      4.54767058	    -64.13911609	    -30.46576314	    -26.64169003	     -0.00116503	     20.46754115	     11.57498616	      1.85373264	    -17.00447451	     -4.12997031	     -3.29789289	      4.17252301	     10.01203560	     -9.10555536	      8.34853217
      5.06000000	     -8.17421508	     10.33180666	     -8.15142296	     -1.53848186	     -0.02188559	      0.43245897	     19.10716638	    -10.50490840	      4.56142467	    -64.79426565	    -29.99660558	    -27.39599094	     -0.76683530	     19.89923949	     11.50356185	      1.97865474	    -16.76547063	     -3.83094904	     -3.13571558	      4.27411779	      9.87571451	     -8.86181470	      8.07152172
      5.06500000	     -8.14972643	     10.09725554	     -8.14676699	     -1.53321099	     -0.02103618	      0.43170837	     19.87770321	    -10.10402559	      4.66095125	    -65.29752601	    -29.47727923	    -27.78297846	     -0.84381671	     19.29937546	     11.38798167	      2.17045371	    -16.47355387	     -3.58905203	     -3.07785621	      4.32384553	      9.74446337	     -8.55697441	      7.82252335
      5.07000000	     -8.18297162	      9.73447705	     -7.99541776	     -1.52798710	     -0.02018143	      0.43098426	     20.61817594	     -9.60098393	      4.50368725	    -65.69015756	    -28.83726892	    -28.01716378	     -1.31448294	     18.77902287	     11.14327017	      2.32969928	    -16.26640277	     -3.20739570	     -2.77506074	      4.53204248	      9.63285948	     -8.17173759	      7.40008360
      5.07500000	     -8.20316976	      9.38957783	     -7.98863534	     -1.52280881	     -0.01928262	      0.43033667	     21.36956130	     -9.06683525	      4.52122338	    -65.95061687	    -28.29860754	    -28.17073569	     -1.24712119	     18.21795246	     10.89257135	      2.52602160	    -15.98349417	     -2.98529745	     -2.73423645	      4.55899495	      9.52720908	     -7.75553789	      7.19165433
      5.08000000	     -8.26660170	      8.95929497	     -7.83389899	     -1.51763211	     -0.01838166	      0.42960174	     22.07723102	     -8.49205860	      4.36783730	    -66.07440933	    -27.60452854	    -27.99786372	     -0.94288286	     17.70660261	     10.57546425	      2.80400563	    -15.75241862	     -2.67997713	     -2.53336366	      4.67592538	      9.44170396	     -7.28887875	      6.75143234
      5.08500000	     -8.33561829	      8.51548392	     -7.83148166	     -1.51250465	     -0.01746182	      0.42908506	     22.81456408	     -7.82744797	      4.34121483	    -66.09918229	    -27.08730713	    -27.92610093	     -0.66834198	     17.18133217	     10.19850895	      3.06637118	    -15.46801032	     -2.47325537	     -2.50746280	      4.68333034	      9.38030101	     -6.77716313	      6.52053374
      5.09000000	     -8.43554583	      7.99315923	     -7.54406227	     -1.50740753	     -0.01659854	      0.42821234	     23.45923054	     -7.22196796	      4.02965653	    -65.96763933	    -26.21745884	    -27.35568025	      0.27276794	     16.73437452	      9.81650411	      3.47797866	    -15.31322874	     -2.15949973	     -2.34041326	      4.77002443	      9.29647347	     -6.23816366	      5.97207580
      5.09500000	     -8.53044788	      7.48743707	     -7.39155814	     -1.50231076	     -0.01574289	      0.42751218	     24.12881543	     -6.57515176	      3.84692952	    -65.75527410	    -25.52811052	    -26.84292088	      1.21097398	     16.25502687	      9.41354315	      3.86069044	    -15.08487606	     -1.90827617	     -2.31559913	      4.73999345	      9.23895822	     -5.68703628	      5.56641453
      5.10000000	     -8.63644285	      6.97571313	     -7.21254598	     -1.49725143	     -0.01493572	      0.42683249	     24.78850267	     -5.93842102	      3.61006947	    -65.45310777	    -24.83870542	    -26.31378628	      2.14460666	     15.80193390	      9.00218384	      4.26750423	    -14.87686668	     -1.67522129	     -2.30345637	      4.70777505	      9.18977937	     -5.14012583	      5.15182992
      5.10500000	     -8.74204430	      6.47167449	     -7.01409930	     -1.49224412	     -0.01419303	      0.42617841	     25.43466011	     -5.32542768	      3.33390390	    -65.07520055	    -24.13008231	    -25.76620854	      3.04640399	     15.36698149	      8.59634992	      4.68556482	    -14.68981945	     -1.44855963	     -2.30306196	      4.67693956	      9.13716904	     -4.61034486	      4.73678561
      5.11000000	     -8.84101049	      6.00244457	     -6.78708919	     -1.48718498	     -0.01350857	      0.42551937	     26.06423414	     -4.78190419	      3.01567702	    -64.63184962	    -23.44260430	    -25.16459190	      3.94851784	     14.91509572	      8.22751183	      5.11062810	    -14.47124031	     -1.22317186	     -2.29110318	      4.64251309	      9.09587581	     -4.12824002	      4.28336762
      5.11500000	     -8.92987815	      5.56774895	     -6.53720967	     -1.48214132	     -0.01288939	      0.42486931	     26.67751614	     -4.29699374	      2.67088980	    -64.13023085	    -22.77456011	    -24.57578612	      4.78309577	     14.45826294	      7.89189597	      5.52702048	    -14.24223752	     -1.00639356	     -2.26271389	      4.61484674	      9.04903340	     -3.68869653	      3.82257007
      5.12000000	     -9.00314530	      5.17938153	     -6.26105820	     -1.47708117	     -0.01233602	      0.42424166	     27.26995377	     -3.89266963	      2.28613478	    -63.57655079	    -22.12163622	    -23.99783674	      5.55750294	     13.98477711	      7.60098235	      5.93335098	    -13.99391212	     -0.79420495	     -2.20374931	      4.60196534	      8.99920719	     -3.31343056	      3.33889827
      5.12500000	     -9.05589439	      4.84626868	     -5.96152893	     -1.47200933	     -0.01184686	      0.42362264	     27.84034867	     -3.57675014	      1.87639458	    -62.97855566	    -21.49103814	    -23.43914068	      6.26975027	     13.48623046	      7.36385189	      6.33028753	    -13.71775058	     -0.58971617	     -2.10821196	      4.60449214	      8.93935848	     -3.00518964	      2.83405342
      5.13000000	     -9.10075048	      4.55196970	     -5.64214703	     -1.46692439	     -0.01143769	      0.42302611	     28.39390655	     -3.32366062	      1.44181184	    -62.33333373	    -20.87262368	    -22.94115943	      6.87568999	     12.97777109	      7.16054619	      6.69855744	    -13.42052627	     -0.38248031	     -1.98708283	      4.63228396	      8.87740779	     -2.74485822	      2.33775901
      5.13500000	     -9.12964965	      4.30398918	     -5.30428338	     -1.46181985	     -0.01109180	      0.42244141	     28.92537767	     -3.15020571	      0.97601938	    -61.64360047	    -20.26840635	    -22.47609434	      7.40391449	     12.44794183	      6.99934993	      7.05083280	    -13.09901199	     -0.17798829	     -1.82998149	      4.68248295	      8.81173578	     -2.54387652	      1.82847015
      5.14000000	     -9.17814785	      4.07758527	     -4.99197336	     -1.45668393	     -0.01084475	      0.42195002	     29.47351872	     -2.98739840	      0.53333443	    -60.91170560	    -19.72591773	    -22.07894349	      7.79738422	     11.91976028	      6.83690753	      7.41572466	    -12.73939861	      0.05493363	     -1.64827920	      4.76223319	      8.77890405	     -2.36372472	      1.37975019
      5.14500000	     -9.17733946	      3.92586452	     -4.58879321	     -1.45155882	     -0.01062234	      0.42135374	     29.95380780	     -2.98620053	     -0.00205590	    -60.13586510	    -19.12694323	    -21.67519524	      8.19993252	     11.35954233	      6.77144616	      7.74253239	    -12.38884531	      0.24779101	     -1.41455451	      4.85570028	      8.69409733	     -2.28834438	      0.81156556
      5.15000000	     -9.18019720	      3.77429760	     -4.23131772	     -1.44640997	     -0.01045948	      0.42083410	     30.42459228	     -2.96826270	     -0.50353449	    -59.30368916	    -18.56891959	    -21.30949026	      8.50008896	     10.78320213	      6.68509608	      8.06124036	    -12.00233018	      0.44651964	     -1.20873528	      4.93778973	      8.62075781	     -2.19994648	      0.32350257
      5.15500000	     -9.16938395	      3.65815055	     -3.84809549	     -1.44127307	     -0.01034476	      0.42030357	     30.86602442	     -3.01631813	     -1.03086973	    -58.42467794	    -18.02263319	    -20.96725501	      8.73141308	     10.19756216	      6.63462768	      8.36435781	    -11.61238174	      0.63292780	     -0.99351180	      5.02558551	      8.53371710	     -2.15883854	     -0.18968065
      5.16000000	     -9.16209438	      3.53932481	     -3.47941507	     -1.43612522	     -0.01027598	      0.41982742	     31.28811909	     -3.06231663	     -1.55926995	    -57.48344345	    -17.49500156	    -20.63084651	      8.88515896	      9.60940312	      6.56791996	      8.66629819	    -11.21114971	      0.81495881	     -0.79459720	      5.10701741	      8.45274497	     -2.11630455	     -0.67769142
      5.16500000	     -9.15416943	      3.43553782	     -3.10622535	     -1.43099580	     -0.01025356	      0.41936215	     31.68825282	     -3.13433273	     -2.09093458	    -56.48396747	    -16.98653565	    -20.30260383	      8.97460909	      9.02572510	      6.51116619	      8.96385578	    -10.81256270	      0.98959727	     -0.60463131	      5.18591001	      8.37087717	     -2.09103127	     -1.15759319
      5.17000000	     -9.15262522	      3.32930877	     -2.74338052	     -1.42585087	     -0.01027333	      0.41893398	     32.06587964	     -3.20581563	     -2.62523811	    -55.41583937	    -16.49447076	    -19.96473954	      9.01216109	      8.44861940	      6.44231304	      9.25756895	    -10.41455529	      1.15870982	     -0.43358428	      5.25662115	      8.29750349	     -2.06457529	     -1.62056196
      5.17500000	     -9.15385965	      3.22719333	     -2.38603918	     -1.42072488	     -0.01033644	      0.41853228	     32.42093290	     -3.28451341	     -3.15899699	    -54.28241602	    -16.01782740	    -19.61174862	      9.01487526	      7.88148456	      6.37069619	      9.54742635	    -10.02518898	      1.32249954	     -0.27952347	      5.32008811	      8.22452761	     -2.04133701	     -2.06858399
      5.18000000	     -9.10537615	      3.15261002	     -2.01715311	     -1.41564402	     -0.01038818	      0.41817024	     32.69655744	     -3.40022808	     -3.68999340	    -53.09262023	    -15.50577161	    -19.19980365	      8.94026280	      7.26816154	      6.32419009	      9.86487254	     -9.64194329	      1.45690325	     -0.15006762	      5.36615843	      8.09060032	     -2.06176922	     -2.52712329
      5.18500000	     -9.15456590	      3.02956927	     -1.70168064	     -1.41051003	     -0.01057337	      0.41788360	     33.03861631	     -3.43063528	     -4.18480707	    -51.80554267	    -15.06873224	    -18.79837571	      8.94732707	      6.76469997	      6.20800271	     10.14722387	     -9.27830622	      1.63901612	     -0.03118992	      5.42136708	      8.07082613	     -2.01282689	     -2.92103322
      5.19000000	     -9.13653733	      2.93264631	     -1.32753423	     -1.40543795	     -0.01070003	      0.41750767	     33.27019338	     -3.54516959	     -4.75678982	    -50.44556698	    -14.57803087	    -18.29292746	      8.96264213	      6.22140774	      6.13381783	     10.43621499	     -8.96465338	      1.77582373	      0.08360292	      5.45241815	      7.96448696	     -2.00118257	     -3.32886502
